:SAMPLES-PER-SECOND 30
:FULLY-SPECIFIED
:DEGREES
112
root  -58.7401 38.7481 6.27513 161.923 -66.9026 -168.252
RightUpLeg  19.6574 -9.7535 2.34344
RightLeg  11.7815 -2.16183 1.65462
RightFoot  -20.8948 0.0469348 2.24846
RightToes  5.23868e-010 0 -3.6325e-017
Spine  2.95451 2.30415 11.9417
Spine1  10.7494 4.18218 -5.73706
HEad  -8.87449 9.02255 -2.8212
LeftShoulder1  -0.489936 4.83581 -30.6315
LeftArm  -3.74935 12.1309 -41.4962
LeftForeArm  21.28 -31.969 -5.82726
LeftHand  -0.0445539 1.69582 1.13987
RightShoulder  -0.474867 -5.02629 24.3413
RightArm  -4.99786 24.1493 41.4349
RightForeArm  4.26847 47.8898 12.1203
RightHand  -0.369462 3.3187 -5.15413
LeftUpLeg  -18.7112 5.89883 2.92981
LeftLeg  4.56968 11.8035 -0.212478
LeftFoot  6.24254 -0.431862 2.49035
LeftToes  -4.9204e-010 1.02043e-011 -1.81609e-011
113
root  -59.9169 38.6075 5.82313 165.303 -67.2935 -172.103
RightUpLeg  20.8226 -11.8995 -0.630112
RightLeg  14.6299 0.926218 1.10423
RightFoot  -21.8768 0.290618 4.73214
RightToes  5.23868e-010 0 -3.6325e-017
Spine  2.42286 2.80129 10.0366
Spine1  10.9999 4.79679 -6.36841
HEad  -7.81982 7.73181 -2.4592
LeftShoulder1  -0.359163 4.4891 -30.3202
LeftArm  -4.88327 10.6545 -40.6661
LeftForeArm  21.8897 -34.4252 -6.41506
LeftHand  -0.027435 2.59343 0.452851
RightShoulder  -0.485892 -5.06165 24.3567
RightArm  -3.04914 25.12 42.175
RightForeArm  2.24571 49.3901 12.9563
RightHand  -0.44401 2.97209 -6.4146
LeftUpLeg  -18.9363 6.38657 1.2866
LeftLeg  7.7262 11.1364 0.177915
LeftFoot  13.0564 -1.35632 5.99132
LeftToes  -4.9204e-010 1.02043e-011 -1.81609e-011
114
root  -61.0113 38.5362 5.41664 169.773 -69.092 -177.498
RightUpLeg  21.2355 -13.6123 -4.10008
RightLeg  19.4885 2.60014 0.765494
RightFoot  -22.0011 0.697901 9.06605
RightToes  5.23868e-010 0 -3.6325e-017
Spine  3.25743 2.64626 6.41571
Spine1  10.2392 4.45894 -6.12871
HEad  -7.63647 7.03695 -2.05888
LeftShoulder1  -0.335193 4.42885 -30.1014
LeftArm  -5.5161 7.82167 -39.8255
LeftForeArm  21.0112 -35.5928 -6.77832
LeftHand  -0.024216 3.33054 -0.196558
RightShoulder  -0.404203 -4.81149 23.9328
RightArm  -2.0165 25.7924 43.5318
RightForeArm  1.15108 50.0614 13.3646
RightHand  -0.480149 2.03345 -7.66179
LeftUpLeg  -19.1953 7.35904 -1.95048
LeftLeg  12.337 8.04398 0.818641
LeftFoot  12.255 -1.99674 9.18646
LeftToes  -4.9204e-010 1.02043e-011 -1.81609e-011
115
root  -61.9973 38.5085 5.12356 174.727 -70.7385 177.036
RightUpLeg  19.0617 -13.5341 -6.92351
RightLeg  27.6493 2.87284 1.40043
RightFoot  -19.7758 0.912997 14.4327
RightToes  5.23868e-010 0 -3.6325e-017
Spine  3.93316 2.56163 4.24
Spine1  10.3981 4.42579 -7.21582
HEad  -7.91095 5.68307 -1.90991
LeftShoulder1  -0.297883 4.3328 -29.7644
LeftArm  -5.75037 3.28599 -39.6652
LeftForeArm  19.463 -35.5365 -6.85734
LeftHand  -0.0947634 1.52989 2.78967
RightShoulder  -0.290406 -4.46823 22.99
RightArm  -1.91066 26.8735 44.6847
RightForeArm  -0.121875 49.9819 13.4208
RightHand  -0.530121 2.37034 -8.11175
LeftUpLeg  -19.0267 7.56698 -4.74129
LeftLeg  15.4765 6.79951 1.4026
LeftFoot  9.90042 -1.89291 9.74374
LeftToes  -4.9204e-010 1.02043e-011 -1.81609e-011
116
root  -62.8833 38.5742 4.92118 179.728 -71.0687 172.564
RightUpLeg  13.3963 -12.4806 -8.93979
RightLeg  38.3849 3.07297 2.35361
RightFoot  -13.2459 0.220532 18.5634
RightToes  5.23868e-010 0 -3.6325e-017
Spine  4.46066 2.85658 3.52575
Spine1  9.86856 4.96648 -8.94738
HEad  -7.96303 4.5009 -2.02355
LeftShoulder1  -0.157598 3.95165 -29.0821
LeftArm  -6.14239 -0.9723 -39.7459
LeftForeArm  19.6759 -36.3091 -7.05882
LeftHand  -0.0963933 1.88539 2.92869
RightShoulder  -0.227624 -4.26749 22.3631
RightArm  -1.538 28.9809 45.0708
RightForeArm  -1.05751 49.1508 13.0903
RightHand  -0.407552 2.49409 -6.21678
LeftUpLeg  -18.9189 7.20152 -6.28796
LeftLeg  16.6935 7.14405 1.30838
LeftFoot  8.11046 -1.78954 10.1181
LeftToes  -4.9204e-010 1.02043e-011 -1.81609e-011
117
root  -63.6524 38.6835 4.74389 -178.017 -70.4393 169.842
RightUpLeg  7.41716 -10.0741 -10.2269
RightLeg  49.166 3.33458 3.80836
RightFoot  -2.91687 -1.19745 16.9643
RightToes  5.23868e-010 0 -3.6325e-017
Spine  6.47911 2.96386 3.64948
Spine1  9.15963 5.50912 -10.9572
HEad  -8.80579 4.16093 -2.69453
LeftShoulder1  -0.0461608 3.6377 -27.8685
LeftArm  -7.37832 -4.9089 -40.0035
LeftForeArm  19.8338 -37.8738 -7.49032
LeftHand  -0.108815 2.08668 3.45674
RightShoulder  -0.0946762 -3.82415 20.9694
RightArm  -0.687726 32.5671 46.2512
RightForeArm  -3.07303 47.2886 12.3767
RightHand  -0.408156 2.89463 -5.94269
LeftUpLeg  -17.4394 7.59475 -6.812
LeftLeg  17.3544 7.55221 0.947513
LeftFoot  6.26411 -1.58401 9.95295
LeftToes  -4.9204e-010 1.02043e-011 -1.81609e-011
118
root  -64.2812 38.7362 4.58443 -176.094 -70.3372 167.716
RightUpLeg  1.34567 -8.00588 -10.923
RightLeg  57.817 3.43008 5.40693
RightFoot  4.45556 -1.65465 11.8606
RightToes  5.23868e-010 0 -3.6325e-017
Spine  8.41968 2.60535 3.62808
Spine1  8.62099 5.50882 -12.8702
HEad  -10.4224 4.19188 -3.13957
LeftShoulder1  0.108308 3.16794 -25.9453
LeftArm  -8.83953 -9.07581 -40.4236
LeftForeArm  18.596 -38.8136 -7.84592
LeftHand  -0.138937 1.33611 3.75765
RightShoulder  0.0252574 -3.38203 19.823
RightArm  0.273151 37.0697 47.4666
RightForeArm  -4.95311 45.2102 11.6238
RightHand  -0.431625 2.6969 -6.40819
LeftUpLeg  -16.5453 7.61929 -7.23086
LeftLeg  18.103 7.80115 0.566504
LeftFoot  4.68943 -1.40578 9.75638
LeftToes  -4.9204e-010 1.02043e-011 -1.81609e-011
119
root  -64.8522 38.8299 4.40003 -173.961 -71.316 165.635
RightUpLeg  -3.43332 -7.17262 -11.703
RightLeg  63.0493 3.15101 6.17686
RightFoot  1.38487 -1.38186 12.411
RightToes  5.23868e-010 0 -3.6325e-017
Spine  10.1953 2.34923 2.27457
Spine1  7.68259 4.89134 -12.1048
HEad  -11.1317 3.59454 -3.77186
LeftShoulder1  0.289603 2.57966 -25.0943
LeftArm  -10.0708 -14.2023 -40.3983
LeftForeArm  18.478 -39.2433 -7.98286
LeftHand  -0.0876895 2.08209 2.70009
RightShoulder  0.104531 -3.05809 18.0493
RightArm  0.63582 40.9112 47.7528
RightForeArm  -6.4008 43.0404 10.8648
RightHand  -0.466301 3.34143 -6.43845
LeftUpLeg  -15.6476 6.79629 -7.7612
LeftLeg  18.14 7.71737 0.318021
LeftFoot  3.78108 -1.30797 9.65481
LeftToes  -4.9204e-010 1.02043e-011 -1.81609e-011
